<svg width="41" height="40" viewBox="0 0 41 40" fill="none" xmlns="http://www.w3.org/2000/svg">
<g clip-path="url(#clip0_6787_238)">
<path d="M-7 2.5C-2.55556 -0.833333 1.88889 -0.833333 6.33333 2.5C10.7778 5.83333 15.2222 5.83333 19.6667 2.5C24.1111 -0.833333 28.5556 -0.833333 33 2.5C37.4444 5.83333 41.8889 5.83333 46.3333 2.5" stroke="#FF0000" stroke-width="0.5"/>
<path d="M-7 20.5C-2.55556 17.1667 1.88889 17.1667 6.33333 20.5C10.7778 23.8333 15.2222 23.8333 19.6667 20.5C24.1111 17.1667 28.5556 17.1667 33 20.5C37.4444 23.8333 41.8889 23.8333 46.3333 20.5" stroke="#FF0000" stroke-width="0.5"/>
<path d="M-7 14.5C-2.55556 11.1667 1.88889 11.1667 6.33333 14.5C10.7778 17.8333 15.2222 17.8333 19.6667 14.5C24.1111 11.1667 28.5556 11.1667 33 14.5C37.4444 17.8333 41.8889 17.8333 46.3333 14.5" stroke="#FF0000" stroke-width="0.5"/>
<path d="M-7 8.5C-2.55556 5.16667 1.88889 5.16667 6.33333 8.5C10.7778 11.8333 15.2222 11.8333 19.6667 8.5C24.1111 5.16667 28.5556 5.16667 33 8.5C37.4444 11.8333 41.8889 11.8333 46.3333 8.5" stroke="#FF0000" stroke-width="0.5"/>
<path d="M-7 37.5C-2.55556 34.1667 1.88889 34.1667 6.33333 37.5C10.7778 40.8333 15.2222 40.8333 19.6667 37.5C24.1111 34.1667 28.5556 34.1667 33 37.5C37.4444 40.8333 41.8889 40.8333 46.3333 37.5" stroke="#FF0000" stroke-width="0.5"/>
<path d="M-7 31.5C-2.55556 28.1667 1.88889 28.1667 6.33333 31.5C10.7778 34.8333 15.2222 34.8333 19.6667 31.5C24.1111 28.1667 28.5556 28.1667 33 31.5C37.4444 34.8333 41.8889 34.8333 46.3333 31.5" stroke="#FF0000" stroke-width="0.5"/>
<path d="M-7 25.5C-2.55556 22.1667 1.88889 22.1667 6.33333 25.5C10.7778 28.8333 15.2222 28.8333 19.6667 25.5C24.1111 22.1667 28.5556 22.1667 33 25.5C37.4444 28.8333 41.8889 28.8333 46.3333 25.5" stroke="#FF0000" stroke-width="0.5"/>
</g>
<defs>
<clipPath id="clip0_6787_238">
<rect width="41" height="40" fill="white"/>
</clipPath>
</defs>
</svg>
