<svg width="938" height="167" viewBox="0 0 938 167" fill="none" xmlns="http://www.w3.org/2000/svg">
<path d="M44.3105 92.44H110.776C131.157 92.44 147.701 108.994 147.701 129.389C147.701 149.784 131.157 166.338 110.776 166.338H44.3105V92.44Z" fill="white"/>
<path d="M16.6442 59.129H44.3102V92.4389H16.6442C7.46312 92.4389 0 84.971 0 75.784C0 66.5858 7.46312 59.129 16.6442 59.129Z" fill="white"/>
<path d="M44.3105 0H88.6207C104.93 0 118.172 13.2503 118.172 29.5592C118.172 45.8793 104.93 59.1184 88.6319 59.1184H44.3105V0Z" fill="white"/>
<path d="M538.795 129.232V53.5031H516.093V42.8538L540.457 36.9374V12.3234H557.726V38.5895H596.749V53.5031H557.726V141.533H595.098V156.916H567.186C544.719 156.916 538.806 148.164 538.806 129.232H538.795Z" fill="white"/>
<path d="M765.345 129.232V53.5038H742.643V42.8545L767.007 36.9382V12.3241H784.276V38.5903H823.298V53.5038H784.276V141.534H821.647V156.916H793.747C771.279 156.916 765.367 148.165 765.367 129.232H765.345Z" fill="white"/>
<path d="M348.669 80.9631C364.521 78.1278 378.232 66.764 378.232 44.0364C378.232 21.3089 366.63 5 333.04 5H255.721V156.915H333.04C366.619 156.915 378.232 139.646 378.232 117.879C378.232 96.1111 364.521 83.7985 348.669 80.952V80.9631ZM275.343 20.8401H329.024C351.023 20.8401 357.661 29.1341 357.661 46.883C357.661 64.6319 348.669 73.3947 326.436 73.3947H275.343V20.8401ZM329.024 141.086H275.343V88.5315H326.436C348.669 88.5315 357.661 97.7743 357.661 115.043C357.661 132.312 351.034 141.086 329.024 141.086Z" fill="white"/>
<path d="M705.505 38.4105V112.275L700.697 117.042L700.452 117.287C680.171 139.01 657.558 145.83 647.429 139.825C647.083 139.624 646.704 139.367 646.269 139.077C640.747 135.192 637.456 128.606 637.456 121.44V38.4105H618.491V121.451C618.491 134.768 624.783 147.148 635.336 154.604C636.218 155.218 637.043 155.743 637.791 156.19C643.168 159.371 649.437 160.889 656.186 160.889C671.47 160.889 689.274 153.053 705.505 138.787V156.714H724.448V38.4105H705.505Z" fill="white"/>
<path d="M920.284 40.8449C912.944 36.9156 903.138 34.7054 890.722 34.7054C858.092 34.7054 840.109 50.791 839.406 75.8739H858.326C859.508 60.4915 868.277 49.6077 891.202 49.6077C914.126 49.6077 920.295 58.8282 920.295 70.9176V73.9985L883.125 83.0293L880.057 83.766C867.975 86.6349 855.481 89.593 846.668 101.649C845.173 103.703 837.822 114.676 840.321 129.389C842.563 142.617 851.922 152.094 859.263 156.191C864.026 158.847 869.448 160.131 875.282 160.131C889.082 160.131 905.18 152.964 920.295 139.982V157.061H937.553V70.9288C937.553 57.8013 932.076 47.0961 920.295 40.8449H920.284ZM867.652 141.121C864.651 139.446 858.638 134.244 857.322 126.52C855.939 118.348 860.546 111.93 860.59 111.863C865.41 105.266 872.282 103.368 884.028 100.588L920.284 91.7921V115.658C900.093 138.743 877.826 146.803 867.652 141.132V141.121Z" fill="white"/>
<path d="M483.408 40.8449C476.067 36.9156 466.262 34.7054 453.845 34.7054C421.215 34.7054 403.232 50.791 402.529 75.8739H421.449C422.632 60.4915 431.4 49.6077 454.325 49.6077C477.25 49.6077 483.419 58.8282 483.419 70.9176V73.9985L446.248 83.0293L443.181 83.766C431.099 86.6349 418.605 89.593 409.792 101.649C408.297 103.703 400.945 114.676 403.444 129.389C405.686 142.617 415.046 152.094 422.386 156.191C427.15 158.847 432.572 160.131 438.406 160.131C452.205 160.131 468.303 152.964 483.419 139.982V157.061H500.677V70.9288C500.677 57.8013 495.199 47.0961 483.419 40.8449H483.408ZM430.776 141.121C427.775 139.446 421.762 134.244 420.445 126.52C419.062 118.348 423.669 111.93 423.714 111.863C428.533 105.266 435.405 103.368 447.152 100.588L483.408 91.7921V115.658C463.216 138.743 440.949 146.803 430.776 141.132V141.121Z" fill="white"/>
</svg>
