<svg width="60" height="60" viewBox="0 0 60 60" fill="none" xmlns="http://www.w3.org/2000/svg">
<path d="M4 17.5C8.44444 14.1667 12.8889 14.1667 17.3333 17.5C21.7778 20.8333 26.2222 20.8333 30.6667 17.5C35.1111 14.1667 39.5556 14.1667 44 17.5C48.4444 20.8333 52.8889 20.8333 57.3333 17.5" stroke="#00FF00" stroke-width="0.5"/>
<path d="M4 19.5C8.44444 16.1667 12.8889 16.1667 17.3333 19.5C21.7778 22.8333 26.2222 22.8333 30.6667 19.5C35.1111 16.1667 39.5556 16.1667 44 19.5C48.4444 22.8333 52.8889 22.8333 57.3333 19.5" stroke="#FF0000" stroke-width="0.5"/>
<path d="M4 11.5C8.44444 8.16667 12.8889 8.16667 17.3333 11.5C21.7778 14.8333 26.2222 14.8333 30.6667 11.5C35.1111 8.16667 39.5556 8.16667 44 11.5C48.4444 14.8333 52.8889 14.8333 57.3333 11.5" stroke="#00FF00" stroke-width="0.5"/>
<path d="M4 13.5C8.44444 10.1667 12.8889 10.1667 17.3333 13.5C21.7778 16.8333 26.2222 16.8333 30.6667 13.5C35.1111 10.1667 39.5556 10.1667 44 13.5C48.4444 16.8333 52.8889 16.8333 57.3333 13.5" stroke="#FF0000" stroke-width="0.5"/>
<path d="M4 5.5C8.44444 2.16667 12.8889 2.16667 17.3333 5.5C21.7778 8.83333 26.2222 8.83333 30.6667 5.5C35.1111 2.16667 39.5556 2.16667 44 5.5C48.4444 8.83333 52.8889 8.83333 57.3333 5.5" stroke="#00FF00" stroke-width="0.5"/>
<path d="M4 7.5C8.44444 4.16667 12.8889 4.16667 17.3333 7.5C21.7778 10.8333 26.2222 10.8333 30.6667 7.5C35.1111 4.16667 39.5556 4.16667 44 7.5C48.4444 10.8333 52.8889 10.8333 57.3333 7.5" stroke="#FF0000" stroke-width="0.5"/>
<path d="M4 35.5C8.44444 32.1667 12.8889 32.1667 17.3333 35.5C21.7778 38.8333 26.2222 38.8333 30.6667 35.5C35.1111 32.1667 39.5556 32.1667 44 35.5C48.4444 38.8333 52.8889 38.8333 57.3333 35.5" stroke="#00FF00" stroke-width="0.5"/>
<path d="M4 37.5C8.44444 34.1667 12.8889 34.1667 17.3333 37.5C21.7778 40.8333 26.2222 40.8333 30.6667 37.5C35.1111 34.1667 39.5556 34.1667 44 37.5C48.4444 40.8333 52.8889 40.8333 57.3333 37.5" stroke="#FF0000" stroke-width="0.5"/>
<path d="M4 29.5C8.44444 26.1667 12.8889 26.1667 17.3333 29.5C21.7778 32.8333 26.2222 32.8333 30.6667 29.5C35.1111 26.1667 39.5556 26.1667 44 29.5C48.4444 32.8333 52.8889 32.8333 57.3333 29.5" stroke="#00FF00" stroke-width="0.5"/>
<path d="M4 31.5C8.44444 28.1667 12.8889 28.1667 17.3333 31.5C21.7778 34.8333 26.2222 34.8333 30.6667 31.5C35.1111 28.1667 39.5556 28.1667 44 31.5C48.4444 34.8333 52.8889 34.8333 57.3333 31.5" stroke="#FF0000" stroke-width="0.5"/>
<path d="M4 23.5C8.44444 20.1667 12.8889 20.1667 17.3333 23.5C21.7778 26.8333 26.2222 26.8333 30.6667 23.5C35.1111 20.1667 39.5556 20.1667 44 23.5C48.4444 26.8333 52.8889 26.8333 57.3333 23.5" stroke="#00FF00" stroke-width="0.5"/>
<path d="M4 25.5C8.44444 22.1667 12.8889 22.1667 17.3333 25.5C21.7778 28.8333 26.2222 28.8333 30.6667 25.5C35.1111 22.1667 39.5556 22.1667 44 25.5C48.4444 28.8333 52.8889 28.8333 57.3333 25.5" stroke="#FF0000" stroke-width="0.5"/>
<path d="M4 52.5C8.44444 49.1667 12.8889 49.1667 17.3333 52.5C21.7778 55.8333 26.2222 55.8333 30.6667 52.5C35.1111 49.1667 39.5556 49.1667 44 52.5C48.4444 55.8333 52.8889 55.8333 57.3333 52.5" stroke="#00FF00" stroke-width="0.5"/>
<path d="M4 54.5C8.44444 51.1667 12.8889 51.1667 17.3333 54.5C21.7778 57.8333 26.2222 57.8333 30.6667 54.5C35.1111 51.1667 39.5556 51.1667 44 54.5C48.4444 57.8333 52.8889 57.8333 57.3333 54.5" stroke="#FF0000" stroke-width="0.5"/>
<path d="M4 46.5C8.44444 43.1667 12.8889 43.1667 17.3333 46.5C21.7778 49.8333 26.2222 49.8333 30.6667 46.5C35.1111 43.1667 39.5556 43.1667 44 46.5C48.4444 49.8333 52.8889 49.8333 57.3333 46.5" stroke="#00FF00" stroke-width="0.5"/>
<path d="M4 48.5C8.44444 45.1667 12.8889 45.1667 17.3333 48.5C21.7778 51.8333 26.2222 51.8333 30.6667 48.5C35.1111 45.1667 39.5556 45.1667 44 48.5C48.4444 51.8333 52.8889 51.8333 57.3333 48.5" stroke="#FF0000" stroke-width="0.5"/>
<path d="M4 40.5C8.44444 37.1667 12.8889 37.1667 17.3333 40.5C21.7778 43.8333 26.2222 43.8333 30.6667 40.5C35.1111 37.1667 39.5556 37.1667 44 40.5C48.4444 43.8333 52.8889 43.8333 57.3333 40.5" stroke="#00FF00" stroke-width="0.5"/>
<path d="M4 42.5C8.44444 39.1667 12.8889 39.1667 17.3333 42.5C21.7778 45.8333 26.2222 45.8333 30.6667 42.5C35.1111 39.1667 39.5556 39.1667 44 42.5C48.4444 45.8333 52.8889 45.8333 57.3333 42.5" stroke="#FF0000" stroke-width="0.5"/>
</svg>
